<?xml version="1.0" encoding="UTF-8" standalone="no"?>
<!-- Created with Inkscape (http://www.inkscape.org/) -->

<svg
   xmlns:dc="http://purl.org/dc/elements/1.1/"
   xmlns:cc="http://creativecommons.org/ns#"
   xmlns:rdf="http://www.w3.org/1999/02/22-rdf-syntax-ns#"
   xmlns:svg="http://www.w3.org/2000/svg"
   xmlns="http://www.w3.org/2000/svg"
   xmlns:sodipodi="http://sodipodi.sourceforge.net/DTD/sodipodi-0.dtd"
   xmlns:inkscape="http://www.inkscape.org/namespaces/inkscape"
   id="svg2"
   version="1.1"
   inkscape:version="0.48.2 r9819"
   width="2025"
   height="1085"
   xml:space="preserve"
   sodipodi:docname="instruction_understood.svg"
   inkscape:export-filename="/Users/jgrizou/Dropbox/shared/BordeauxBielefeld/sharedBordeauxBielefeld/images/plots/meanings/instruction_understood.png"
   inkscape:export-xdpi="90"
   inkscape:export-ydpi="90"><metadata
     id="metadata8"><rdf:RDF><cc:Work
         rdf:about=""><dc:format>image/svg+xml</dc:format><dc:type
           rdf:resource="http://purl.org/dc/dcmitype/StillImage" /><dc:title></dc:title></cc:Work></rdf:RDF></metadata><defs
     id="defs6"><clipPath
       clipPathUnits="userSpaceOnUse"
       id="clipPath22"><path
         d="m 855.387,888.805 13510.913,0 0,6587.915 -13510.913,0 0,-6587.915 z"
         id="path24" /></clipPath></defs><sodipodi:namedview
     pagecolor="#ffffff"
     bordercolor="#666666"
     borderopacity="1"
     objecttolerance="10"
     gridtolerance="10"
     guidetolerance="10"
     inkscape:pageopacity="0"
     inkscape:pageshadow="2"
     inkscape:window-width="1280"
     inkscape:window-height="683"
     id="namedview4"
     showgrid="false"
     inkscape:zoom="0.42857143"
     inkscape:cx="1026.2279"
     inkscape:cy="542.5"
     inkscape:window-x="0"
     inkscape:window-y="0"
     inkscape:window-maximized="1"
     inkscape:current-layer="g350" /><g
     id="g10"
     inkscape:groupmode="layer"
     inkscape:label="ink_ext_XXXXXX"
     transform="matrix(1.25,0,0,-1.25,0,1085)"><g
       id="g12"
       transform="scale(0.110429,0.110429)"><g
         id="g18"><g
           id="g20"
           clip-path="url(#clipPath22)"><path
             d="m 1566.72,888.832 569.062,0 0,5123.63 -569.062,0 0,-5123.63 z"
             style="fill:#00cc16;fill-opacity:1;fill-rule:nonzero;stroke:none"
             id="path26" /><path
             d="m 1566.72,888.832 569.062,0 0,5123.63 -569.062,0 0,-5123.63 z"
             style="fill:none;stroke:#000000;stroke-opacity:1;stroke-width:9.05556;stroke-linecap:square;stroke-linejoin:round;stroke-miterlimit:10;stroke-dasharray:none"
             id="path28" /><path
             d="m 2989.38,888.832 569.059,0 0,5123.63 -569.059,0 0,-5123.63 z"
             style="fill:#00cc16;fill-opacity:1;fill-rule:nonzero;stroke:none"
             id="path30" /><path
             d="m 2989.38,888.832 569.059,0 0,5123.63 -569.059,0 0,-5123.63 z"
             style="fill:none;stroke:#000000;stroke-opacity:1;stroke-width:9.05556;stroke-linecap:square;stroke-linejoin:round;stroke-miterlimit:10;stroke-dasharray:none"
             id="path32" /><path
             d="m 4412.03,888.832 569.059,0 0,4757.66 -569.059,0 0,-4757.66 z"
             style="fill:#00cc16;fill-opacity:1;fill-rule:nonzero;stroke:none"
             id="path34" /><path
             d="m 4412.03,888.832 569.059,0 0,4757.66 -569.059,0 0,-4757.66 z"
             style="fill:none;stroke:#000000;stroke-opacity:1;stroke-width:9.05556;stroke-linecap:square;stroke-linejoin:round;stroke-miterlimit:10;stroke-dasharray:none"
             id="path36" /><path
             d="m 5834.68,888.832 569.062,0 0,1463.89 -569.062,0 0,-1463.89 z"
             style="fill:#00cc16;fill-opacity:1;fill-rule:nonzero;stroke:none"
             id="path38" /><path
             d="m 5834.68,888.832 569.062,0 0,1463.89 -569.062,0 0,-1463.89 z"
             style="fill:none;stroke:#000000;stroke-opacity:1;stroke-width:9.05556;stroke-linecap:square;stroke-linejoin:round;stroke-miterlimit:10;stroke-dasharray:none"
             id="path40" /><path
             d="m 7257.34,888.832 569.059,0 0,731.949 -569.059,0 0,-731.949 z"
             style="fill:#00cc16;fill-opacity:1;fill-rule:nonzero;stroke:none"
             id="path42" /><path
             d="m 7257.34,888.832 569.059,0 0,731.949 -569.059,0 0,-731.949 z"
             style="fill:none;stroke:#000000;stroke-opacity:1;stroke-width:9.05556;stroke-linecap:square;stroke-linejoin:round;stroke-miterlimit:10;stroke-dasharray:none"
             id="path44" /><path
             d="m 8680,888.832 569.078,0 0,731.949 -569.078,0 0,-731.949 z"
             style="fill:#00cc16;fill-opacity:1;fill-rule:nonzero;stroke:none"
             id="path46" /><path
             d="m 8680,888.832 569.078,0 0,731.949 -569.078,0 0,-731.949 z"
             style="fill:none;stroke:#000000;stroke-opacity:1;stroke-width:9.05556;stroke-linecap:square;stroke-linejoin:round;stroke-miterlimit:10;stroke-dasharray:none"
             id="path48" /><path
             d="m 10102.6,888.832 569.051,0 0,0 -569.051,0 z"
             style="fill:#00cc16;fill-opacity:1;fill-rule:nonzero;stroke:none"
             id="path50" /><path
             d="m 10102.6,888.832 569.051,0 0,0 -569.051,0 z"
             style="fill:none;stroke:#000000;stroke-opacity:1;stroke-width:9.05556;stroke-linecap:square;stroke-linejoin:round;stroke-miterlimit:10;stroke-dasharray:none"
             id="path52" /><path
             d="m 11525.3,888.832 569.051,0 0,0 -569.051,0 z"
             style="fill:#00cc16;fill-opacity:1;fill-rule:nonzero;stroke:none"
             id="path54" /><path
             d="m 11525.3,888.832 569.051,0 0,0 -569.051,0 z"
             style="fill:none;stroke:#000000;stroke-opacity:1;stroke-width:9.05556;stroke-linecap:square;stroke-linejoin:round;stroke-miterlimit:10;stroke-dasharray:none"
             id="path56" /><path
             d="m 12948,888.832 569.051,0 0,0 -569.051,0 z"
             style="fill:#00cc16;fill-opacity:1;fill-rule:nonzero;stroke:none"
             id="path58" /><path
             d="m 12948,888.832 569.051,0 0,0 -569.051,0 z"
             style="fill:none;stroke:#000000;stroke-opacity:1;stroke-width:9.05556;stroke-linecap:square;stroke-linejoin:round;stroke-miterlimit:10;stroke-dasharray:none"
             id="path60" /><path
             d="m 1566.72,6012.46 569.062,0 0,731.949 -569.062,0 0,-731.949 z"
             style="fill:#cc0000;fill-opacity:1;fill-rule:nonzero;stroke:none"
             id="path62" /><path
             d="m 1566.72,6012.46 569.062,0 0,731.949 -569.062,0 0,-731.949 z"
             style="fill:none;stroke:#000000;stroke-opacity:1;stroke-width:9.05556;stroke-linecap:square;stroke-linejoin:round;stroke-miterlimit:10;stroke-dasharray:none"
             id="path64" /><path
             d="m 2989.38,6012.46 569.059,0 0,365.969 -569.059,0 0,-365.969 z"
             style="fill:#cc0000;fill-opacity:1;fill-rule:nonzero;stroke:none"
             id="path66" /><path
             d="m 2989.38,6012.46 569.059,0 0,365.969 -569.059,0 0,-365.969 z"
             style="fill:none;stroke:#000000;stroke-opacity:1;stroke-width:9.05556;stroke-linecap:square;stroke-linejoin:round;stroke-miterlimit:10;stroke-dasharray:none"
             id="path68" /><path
             d="m 4412.03,5646.49 569.059,0 0,0 -569.059,0 z"
             style="fill:#cc0000;fill-opacity:1;fill-rule:nonzero;stroke:none"
             id="path70" /><path
             d="m 4412.03,5646.49 569.059,0 0,0 -569.059,0 z"
             style="fill:none;stroke:#000000;stroke-opacity:1;stroke-width:9.05556;stroke-linecap:square;stroke-linejoin:round;stroke-miterlimit:10;stroke-dasharray:none"
             id="path72" /><path
             d="m 5834.68,2352.72 569.062,0 0,0 -569.062,0 z"
             style="fill:#cc0000;fill-opacity:1;fill-rule:nonzero;stroke:none"
             id="path74" /><path
             d="m 5834.68,2352.72 569.062,0 0,0 -569.062,0 z"
             style="fill:none;stroke:#000000;stroke-opacity:1;stroke-width:9.05556;stroke-linecap:square;stroke-linejoin:round;stroke-miterlimit:10;stroke-dasharray:none"
             id="path76" /><path
             d="m 7257.34,1620.78 569.059,0 0,1463.89 -569.059,0 0,-1463.89 z"
             style="fill:#cc0000;fill-opacity:1;fill-rule:nonzero;stroke:none"
             id="path78" /><path
             d="m 7257.34,1620.78 569.059,0 0,1463.89 -569.059,0 0,-1463.89 z"
             style="fill:none;stroke:#000000;stroke-opacity:1;stroke-width:9.05556;stroke-linecap:square;stroke-linejoin:round;stroke-miterlimit:10;stroke-dasharray:none"
             id="path80" /><path
             d="m 8680,1620.78 569.078,0 0,365.973 -569.078,0 0,-365.973 z"
             style="fill:#cc0000;fill-opacity:1;fill-rule:nonzero;stroke:none"
             id="path82" /><path
             d="m 8680,1620.78 569.078,0 0,365.973 -569.078,0 0,-365.973 z"
             style="fill:none;stroke:#000000;stroke-opacity:1;stroke-width:9.05556;stroke-linecap:square;stroke-linejoin:round;stroke-miterlimit:10;stroke-dasharray:none"
             id="path84" /><path
             d="m 10102.6,888.832 569.051,0 0,365.969 -569.051,0 0,-365.969 z"
             style="fill:#cc0000;fill-opacity:1;fill-rule:nonzero;stroke:none"
             id="path86" /><path
             d="m 10102.6,888.832 569.051,0 0,365.969 -569.051,0 0,-365.969 z"
             style="fill:none;stroke:#000000;stroke-opacity:1;stroke-width:9.05556;stroke-linecap:square;stroke-linejoin:round;stroke-miterlimit:10;stroke-dasharray:none"
             id="path88" /><path
             d="m 11525.3,888.832 569.051,0 0,0 -569.051,0 z"
             style="fill:#cc0000;fill-opacity:1;fill-rule:nonzero;stroke:none"
             id="path90" /><path
             d="m 11525.3,888.832 569.051,0 0,0 -569.051,0 z"
             style="fill:none;stroke:#000000;stroke-opacity:1;stroke-width:9.05556;stroke-linecap:square;stroke-linejoin:round;stroke-miterlimit:10;stroke-dasharray:none"
             id="path92" /><path
             d="m 12948,888.832 569.051,0 0,0 -569.051,0 z"
             style="fill:#cc0000;fill-opacity:1;fill-rule:nonzero;stroke:none"
             id="path94" /><path
             d="m 12948,888.832 569.051,0 0,0 -569.051,0 z"
             style="fill:none;stroke:#000000;stroke-opacity:1;stroke-width:9.05556;stroke-linecap:square;stroke-linejoin:round;stroke-miterlimit:10;stroke-dasharray:none"
             id="path96" /><path
             d="m 1566.72,6744.41 569.062,0 0,365.973 -569.062,0 0,-365.973 z"
             style="fill:#c3cc00;fill-opacity:1;fill-rule:nonzero;stroke:none"
             id="path98" /><path
             d="m 1566.72,6744.41 569.062,0 0,365.973 -569.062,0 0,-365.973 z"
             style="fill:none;stroke:#000000;stroke-opacity:1;stroke-width:9.05556;stroke-linecap:square;stroke-linejoin:round;stroke-miterlimit:10;stroke-dasharray:none"
             id="path100" /><path
             d="m 2989.38,6378.43 569.059,0 0,0 -569.059,0 z"
             style="fill:#c3cc00;fill-opacity:1;fill-rule:nonzero;stroke:none"
             id="path102" /><path
             d="m 2989.38,6378.43 569.059,0 0,0 -569.059,0 z"
             style="fill:none;stroke:#000000;stroke-opacity:1;stroke-width:9.05556;stroke-linecap:square;stroke-linejoin:round;stroke-miterlimit:10;stroke-dasharray:none"
             id="path104" /><path
             d="m 4412.03,5646.49 569.059,0 0,0 -569.059,0 z"
             style="fill:#c3cc00;fill-opacity:1;fill-rule:nonzero;stroke:none"
             id="path106" /><path
             d="m 4412.03,5646.49 569.059,0 0,0 -569.059,0 z"
             style="fill:none;stroke:#000000;stroke-opacity:1;stroke-width:9.05556;stroke-linecap:square;stroke-linejoin:round;stroke-miterlimit:10;stroke-dasharray:none"
             id="path108" /><path
             d="m 5834.68,2352.72 569.062,0 0,365.973 -569.062,0 0,-365.973 z"
             style="fill:#c3cc00;fill-opacity:1;fill-rule:nonzero;stroke:none"
             id="path110" /><path
             d="m 5834.68,2352.72 569.062,0 0,365.973 -569.062,0 0,-365.973 z"
             style="fill:none;stroke:#000000;stroke-opacity:1;stroke-width:9.05556;stroke-linecap:square;stroke-linejoin:round;stroke-miterlimit:10;stroke-dasharray:none"
             id="path112" /><path
             d="m 7257.34,3084.68 569.059,0 0,1829.86 -569.059,0 0,-1829.86 z"
             style="fill:#c3cc00;fill-opacity:1;fill-rule:nonzero;stroke:none"
             id="path114" /><path
             d="m 7257.34,3084.68 569.059,0 0,1829.86 -569.059,0 0,-1829.86 z"
             style="fill:none;stroke:#000000;stroke-opacity:1;stroke-width:9.05556;stroke-linecap:square;stroke-linejoin:round;stroke-miterlimit:10;stroke-dasharray:none"
             id="path116" /><path
             d="m 8680,1986.75 569.078,0 0,1829.86 -569.078,0 0,-1829.86 z"
             style="fill:#c3cc00;fill-opacity:1;fill-rule:nonzero;stroke:none"
             id="path118" /><path
             d="m 8680,1986.75 569.078,0 0,1829.86 -569.078,0 0,-1829.86 z"
             style="fill:none;stroke:#000000;stroke-opacity:1;stroke-width:9.05556;stroke-linecap:square;stroke-linejoin:round;stroke-miterlimit:10;stroke-dasharray:none"
             id="path120" /><path
             d="m 10102.6,1254.8 569.051,0 0,365.98 -569.051,0 0,-365.98 z"
             style="fill:#c3cc00;fill-opacity:1;fill-rule:nonzero;stroke:none"
             id="path122" /><path
             d="m 10102.6,1254.8 569.051,0 0,365.98 -569.051,0 0,-365.98 z"
             style="fill:none;stroke:#000000;stroke-opacity:1;stroke-width:9.05556;stroke-linecap:square;stroke-linejoin:round;stroke-miterlimit:10;stroke-dasharray:none"
             id="path124" /><path
             d="m 11525.3,888.832 569.051,0 0,731.949 -569.051,0 0,-731.949 z"
             style="fill:#c3cc00;fill-opacity:1;fill-rule:nonzero;stroke:none"
             id="path126" /><path
             d="m 11525.3,888.832 569.051,0 0,731.949 -569.051,0 0,-731.949 z"
             style="fill:none;stroke:#000000;stroke-opacity:1;stroke-width:9.05556;stroke-linecap:square;stroke-linejoin:round;stroke-miterlimit:10;stroke-dasharray:none"
             id="path128" /><path
             d="m 12948,888.832 569.051,0 0,0 -569.051,0 z"
             style="fill:#c3cc00;fill-opacity:1;fill-rule:nonzero;stroke:none"
             id="path130" /><path
             d="m 12948,888.832 569.051,0 0,0 -569.051,0 z"
             style="fill:none;stroke:#000000;stroke-opacity:1;stroke-width:9.05556;stroke-linecap:square;stroke-linejoin:round;stroke-miterlimit:10;stroke-dasharray:none"
             id="path132" /></g></g><path
         d="m 1851.25,888.832 0,36.223"
         style="fill:#000000;fill-opacity:1;fill-rule:nonzero;stroke:none"
         id="path134" /><path
         d="m 1851.25,888.832 0,36.223"
         style="fill:none;stroke:#000000;stroke-opacity:1;stroke-width:4.52778;stroke-linecap:butt;stroke-linejoin:round;stroke-miterlimit:10;stroke-dasharray:none"
         id="path136" /><g
         id="g142"
         transform="scale(9.05556,9.05556)"><text
   transform="matrix(1,0,0,-1,149.816,75.1528)"
   id="text144"><tspan
     style="fill:#000000;fill-opacity:1;fill-rule:nonzero;stroke:none;font-family:Arial;font-variant:normal;font-weight:normal;font-size:25;writing-mode:lr;-inkscape-font-specification:Arial"
     x="0 18.32266793 35.49766793 50.37803303 58.94753313 70.89807234 79.46757244 95.76369017"
     y="0"
     sodipodi:role="line"
     id="tspan146">Positive</tspan><tspan
     style="fill:#000000;fill-opacity:1;fill-rule:nonzero;stroke:none;font-family:Arial;font-variant:normal;font-weight:normal;font-size:25;writing-mode:lr;-inkscape-font-specification:Arial"
     x="-17.0234 -8.32017825 7.75765425 24.71331593 41.6689776 59.5641517 77.45975718 94.33001215 109.1491348"
     y="29.0434"
     sodipodi:role="line"
     id="tspan148"> Feedback</tspan></text>


</g><path
         d="m 3273.91,888.832 0,36.223"
         style="fill:#000000;fill-opacity:1;fill-rule:nonzero;stroke:none"
         id="path150" /><path
         d="m 3273.91,888.832 0,36.223"
         style="fill:none;stroke:#000000;stroke-opacity:1;stroke-width:4.52778;stroke-linecap:butt;stroke-linejoin:round;stroke-miterlimit:10;stroke-dasharray:none"
         id="path152" /><g
         id="g158"
         transform="scale(9.05556,9.05556)"><text
   transform="matrix(1,0,0,-1,300.075,75.1528)"
   id="text160"><tspan
     style="fill:#000000;fill-opacity:1;fill-rule:nonzero;stroke:none;font-family:Arial;font-variant:normal;font-weight:normal;font-size:25;writing-mode:lr;-inkscape-font-specification:Arial"
     x="0 20.92292406 37.87858573 55.77375983 72.64401481 84.59455401 93.16405411 109.46060319"
     y="0"
     sodipodi:role="line"
     id="tspan162">Negative</tspan><tspan
     style="fill:#000000;fill-opacity:1;fill-rule:nonzero;stroke:none;font-family:Arial;font-variant:normal;font-weight:normal;font-size:25;writing-mode:lr;-inkscape-font-specification:Arial"
     x="-10.1798 -1.47616035 14.60168465 31.55691495 48.51257663 66.4081821 84.30378758 101.1736112 115.99316523"
     y="29.0434"
     sodipodi:role="line"
     id="tspan164"> Feedback</tspan></text>


</g><path
         d="m 4696.56,888.832 0,36.223"
         style="fill:#000000;fill-opacity:1;fill-rule:nonzero;stroke:none"
         id="path166" /><path
         d="m 4696.56,888.832 0,36.223"
         style="fill:none;stroke:#000000;stroke-opacity:1;stroke-width:4.52778;stroke-linecap:butt;stroke-linejoin:round;stroke-miterlimit:10;stroke-dasharray:none"
         id="path168" /><g
         id="g174"
         transform="scale(9.05556,9.05556)"><text
   transform="matrix(1,0,0,-1,494.451,75.1528)"
   id="text176"><tspan
     style="fill:#000000;fill-opacity:1;fill-rule:nonzero;stroke:none;font-family:Arial;font-variant:normal;font-weight:normal;font-size:25;writing-mode:lr;-inkscape-font-specification:Arial"
     x="0 17.07731859 34.87543137"
     y="0"
     sodipodi:role="line"
     id="tspan178">End</tspan></text>


</g><path
         d="m 6119.22,888.832 0,36.223"
         style="fill:#000000;fill-opacity:1;fill-rule:nonzero;stroke:none"
         id="path180" /><path
         d="m 6119.22,888.832 0,36.223"
         style="fill:none;stroke:#000000;stroke-opacity:1;stroke-width:4.52778;stroke-linecap:butt;stroke-linejoin:round;stroke-miterlimit:10;stroke-dasharray:none"
         id="path182" /><g
         id="g188"
         transform="scale(9.05556,9.05556)"><text
   transform="matrix(1,0,0,-1,637.187,75.9345)"
   id="text190"><tspan
     style="fill:#000000;fill-opacity:1;fill-rule:nonzero;stroke:none;font-family:Arial;font-variant:normal;font-weight:normal;font-size:25;writing-mode:lr;-inkscape-font-specification:Arial"
     x="0 19.25053921 36.20576951 51.08659293 68.04182323"
     y="0"
     sodipodi:role="line"
     id="tspan192">Reset</tspan></text>


</g><path
         d="m 7541.88,888.832 0,36.223"
         style="fill:#000000;fill-opacity:1;fill-rule:nonzero;stroke:none"
         id="path194" /><path
         d="m 7541.88,888.832 0,36.223"
         style="fill:none;stroke:#000000;stroke-opacity:1;stroke-width:4.52778;stroke-linecap:butt;stroke-linejoin:round;stroke-miterlimit:10;stroke-dasharray:none"
         id="path196" /><g
         id="g202"
         transform="scale(9.05556,9.05556)"><text
   transform="matrix(1,0,0,-1,768.454,75.1528)"
   id="text204"><tspan
     style="fill:#000000;fill-opacity:1;fill-rule:nonzero;stroke:none;font-family:Arial;font-variant:normal;font-weight:normal;font-size:25;writing-mode:lr;-inkscape-font-specification:Arial"
     x="0 20.5200393 38.31772071 46.88722081 64.78285324 81.65267686 99.45078964 114.26991229"
     y="0"
     sodipodi:role="line"
     id="tspan206">Guidance</tspan></text>


</g><path
         d="m 8964.53,888.832 0,36.223"
         style="fill:#000000;fill-opacity:1;fill-rule:nonzero;stroke:none"
         id="path208" /><path
         d="m 8964.53,888.832 0,36.223"
         style="fill:none;stroke:#000000;stroke-opacity:1;stroke-width:4.52778;stroke-linecap:butt;stroke-linejoin:round;stroke-miterlimit:10;stroke-dasharray:none"
         id="path210" /><g
         id="g216"
         transform="scale(9.05556,9.05556)"><text
   transform="matrix(1,0,0,-1,953.815,75.1528)"
   id="text218"><tspan
     style="fill:#000000;fill-opacity:1;fill-rule:nonzero;stroke:none;font-family:Arial;font-variant:normal;font-weight:normal;font-size:25;writing-mode:lr;-inkscape-font-specification:Arial"
     x="0 18.34676475 35.5224118 44.09148052 61.26648052"
     y="0"
     sodipodi:role="line"
     id="tspan220">Color</tspan></text>


</g><path
         d="m 10387.2,888.832 0,36.223"
         style="fill:#000000;fill-opacity:1;fill-rule:nonzero;stroke:none"
         id="path222" /><path
         d="m 10387.2,888.832 0,36.223"
         style="fill:none;stroke:#000000;stroke-opacity:1;stroke-width:4.52778;stroke-linecap:butt;stroke-linejoin:round;stroke-miterlimit:10;stroke-dasharray:none"
         id="path224" /><g
         id="g230"
         transform="scale(9.05556,9.05556)"><text
   transform="matrix(1,0,0,-1,1119.51,75.1528)"
   id="text232"><tspan
     style="fill:#000000;fill-opacity:1;fill-rule:nonzero;stroke:none;font-family:Arial;font-variant:normal;font-weight:normal;font-size:25;writing-mode:lr;-inkscape-font-specification:Arial"
     x="0 18.00560775 26.57467648 41.12543137"
     y="0"
     sodipodi:role="line"
     id="tspan234">Size</tspan></text>


</g><path
         d="m 11809.8,888.832 0,36.223"
         style="fill:#000000;fill-opacity:1;fill-rule:nonzero;stroke:none"
         id="path236" /><path
         d="m 11809.8,888.832 0,36.223"
         style="fill:none;stroke:#000000;stroke-opacity:1;stroke-width:4.52778;stroke-linecap:butt;stroke-linejoin:round;stroke-miterlimit:10;stroke-dasharray:none"
         id="path238" /><g
         id="g244"
         transform="scale(9.05556,9.05556)"><text
   transform="matrix(1,0,0,-1,1246.12,75.1528)"
   id="text246"><tspan
     style="fill:#000000;fill-opacity:1;fill-rule:nonzero;stroke:none;font-family:Arial;font-variant:normal;font-weight:normal;font-size:25;writing-mode:lr;-inkscape-font-specification:Arial"
     x="0 15.93028423 33.10528423 47.92435295 64.79460793 76.74514713 85.31464723 102.48964723"
     y="0"
     sodipodi:role="line"
     id="tspan248">Location</tspan></text>


</g><path
         d="m 13232.5,888.832 0,36.223"
         style="fill:#000000;fill-opacity:1;fill-rule:nonzero;stroke:none"
         id="path250" /><path
         d="m 13232.5,888.832 0,36.223"
         style="fill:none;stroke:#000000;stroke-opacity:1;stroke-width:4.52778;stroke-linecap:butt;stroke-linejoin:round;stroke-miterlimit:10;stroke-dasharray:none"
         id="path252" /><g
         id="g258"
         transform="scale(9.05556,9.05556)"><text
   transform="matrix(1,0,0,-1,1419.58,75.5907)"
   id="text260"><tspan
     style="fill:#000000;fill-opacity:1;fill-rule:nonzero;stroke:none;font-family:Arial;font-variant:normal;font-weight:normal;font-size:25;writing-mode:lr;-inkscape-font-specification:Arial"
     x="0 20.5200393 32.84935295 50.02435295 67.82208828"
     y="0"
     sodipodi:role="line"
     id="tspan262">Group</tspan></text>


<text
   transform="scale(1,-1)"
   id="text264"
   x="688.73553"
   y="-14.752987"
   style="font-size:32.00011444px"><tspan
     style="font-size:32.00011444px;font-variant:normal;font-weight:normal;writing-mode:lr-tb;fill:#000000;fill-opacity:1;fill-rule:nonzero;stroke:none;font-family:Arial;-inkscape-font-specification:Arial"
     x="688.73553"
     y="-14.752987"
     sodipodi:role="line"
     id="tspan266">Meaning categories</tspan></text>


</g><path
         d="m 855.395,888.832 36.222,0"
         style="fill:#000000;fill-opacity:1;fill-rule:nonzero;stroke:none"
         id="path268" /><path
         d="m 855.395,888.832 36.222,0"
         style="fill:none;stroke:#000000;stroke-opacity:1;stroke-width:4.52778;stroke-linecap:butt;stroke-linejoin:round;stroke-miterlimit:10;stroke-dasharray:none"
         id="path270" /><g
         id="g276"
         transform="scale(9.05556,9.05556)"><text
   transform="matrix(1,0,0,-1,75.4608,89.0514)"
   id="text278"><tspan
     style="fill:#000000;fill-opacity:1;fill-rule:nonzero;stroke:none;font-family:Arial;font-variant:normal;font-weight:normal;font-size:25;writing-mode:lr;-inkscape-font-specification:Arial"
     x="0"
     y="0"
     id="tspan280">0</tspan></text>


</g><path
         d="m 855.395,2718.7 36.222,0"
         style="fill:#000000;fill-opacity:1;fill-rule:nonzero;stroke:none"
         id="path282" /><path
         d="m 855.395,2718.7 36.222,0"
         style="fill:none;stroke:#000000;stroke-opacity:1;stroke-width:4.52778;stroke-linecap:butt;stroke-linejoin:round;stroke-miterlimit:10;stroke-dasharray:none"
         id="path284" /><g
         id="g290"
         transform="scale(9.05556,9.05556)"><text
   transform="matrix(1,0,0,-1,76.742,291.295)"
   id="text292"><tspan
     style="fill:#000000;fill-opacity:1;fill-rule:nonzero;stroke:none;font-family:Arial;font-variant:normal;font-weight:normal;font-size:25;writing-mode:lr;-inkscape-font-specification:Arial"
     x="0"
     y="0"
     id="tspan294">5</tspan></text>


</g><path
         d="m 855.395,4548.57 36.222,0"
         style="fill:#000000;fill-opacity:1;fill-rule:nonzero;stroke:none"
         id="path296" /><path
         d="m 855.395,4548.57 36.222,0"
         style="fill:none;stroke:#000000;stroke-opacity:1;stroke-width:4.52778;stroke-linecap:butt;stroke-linejoin:round;stroke-miterlimit:10;stroke-dasharray:none"
         id="path298" /><g
         id="g304"
         transform="scale(9.05556,9.05556)"><text
   transform="matrix(1,0,0,-1,59.6949,493.194)"
   id="text306"><tspan
     style="fill:#000000;fill-opacity:1;fill-rule:nonzero;stroke:none;font-family:Arial;font-variant:normal;font-weight:normal;font-size:25;writing-mode:lr;-inkscape-font-specification:Arial"
     x="0 17.39522803"
     y="0"
     sodipodi:role="line"
     id="tspan308">10</tspan></text>


</g><path
         d="m 855.395,6012.46 36.222,0"
         style="fill:#000000;fill-opacity:1;fill-rule:nonzero;stroke:none"
         id="path310" /><path
         d="m 855.395,6012.46 36.222,0"
         style="fill:none;stroke:#000000;stroke-opacity:1;stroke-width:4.52778;stroke-linecap:butt;stroke-linejoin:round;stroke-miterlimit:10;stroke-dasharray:none"
         id="path312" /><g
         id="g318"
         transform="scale(9.05556,9.05556)"><text
   transform="matrix(1,0,0,-1,59.6483,654.844)"
   id="text320"><tspan
     style="fill:#000000;fill-opacity:1;fill-rule:nonzero;stroke:none;font-family:Arial;font-variant:normal;font-weight:normal;font-size:25;writing-mode:lr;-inkscape-font-specification:Arial"
     x="0 17.39479665"
     y="0"
     sodipodi:role="line"
     id="tspan322">14</tspan></text>


</g><path
         d="m 855.395,7110.39 36.222,0"
         style="fill:#000000;fill-opacity:1;fill-rule:nonzero;stroke:none"
         id="path324" /><path
         d="m 855.395,7110.39 36.222,0"
         style="fill:none;stroke:#000000;stroke-opacity:1;stroke-width:4.52778;stroke-linecap:butt;stroke-linejoin:round;stroke-miterlimit:10;stroke-dasharray:none"
         id="path326" /><g
         id="g332"
         transform="scale(9.05556,9.05556)"><text
   transform="matrix(1,0,0,-1,60.492,776.087)"
   id="text334"><tspan
     style="fill:#000000;fill-opacity:1;fill-rule:nonzero;stroke:none;font-family:Arial;font-variant:normal;font-weight:normal;font-size:25;writing-mode:lr;-inkscape-font-specification:Arial"
     x="0 17.39479665"
     y="0"
     sodipodi:role="line"
     id="tspan336">17</tspan></text>


<text
   transform="matrix(0,1,1,0,48.4138,274.46)"
   id="text338"
   style="-inkscape-font-specification:Arial;font-family:Arial;font-weight:normal;font-style:normal;font-stretch:normal;font-variant:normal;font-size:32.00011407px;text-anchor:start;text-align:start;writing-mode:lr;line-height:125%"
   sodipodi:linespacing="125%"><tspan
     style="font-size:32.00011407px;font-variant:normal;font-weight:normal;writing-mode:lr;fill:#000000;fill-opacity:1;fill-rule:nonzero;stroke:none;font-family:Arial;-inkscape-font-specification:Arial;font-style:normal;font-stretch:normal;text-anchor:start;text-align:start;line-height:125%"
     x="0"
     y="0"
     sodipodi:role="line"
     id="tspan340">Number of participants</tspan></text>


</g><path
         d="m 855.395,888.832 13058.189,0"
         style="fill:none;stroke:#000000;stroke-width:8.9011364;stroke-linecap:square;stroke-linejoin:round;stroke-miterlimit:10;stroke-opacity:1;stroke-dasharray:none"
         id="path346"
         inkscape:connector-curvature="0" /><path
         d="m 855.395,888.832 0,6219.537"
         style="fill:none;stroke:#000000;stroke-width:8.54969978;stroke-linecap:square;stroke-linejoin:round;stroke-miterlimit:10;stroke-opacity:1;stroke-dasharray:none"
         id="path348"
         inkscape:connector-curvature="0" /><g
         id="g350"
         transform="scale(9.05556,9.05556)"><text
   transform="scale(1,-1)"
   id="text352"
   x="103.03629"
   y="-830.60999"
   sodipodi:linespacing="125%"
   style="line-height:125%"><tspan
     style="font-size:32.00011444px;font-style:normal;font-variant:normal;font-weight:normal;font-stretch:normal;text-align:start;line-height:125%;writing-mode:lr-tb;text-anchor:start;fill:#000000;fill-opacity:1;fill-rule:nonzero;stroke:none;font-family:Arial;-inkscape-font-specification:Arial"
     sodipodi:role="line"
     id="tspan354"
     x="103.03629"
     y="-830.60999">Number of builder/architect pairs agreeing on different meaning categories at the end of an experiment </tspan></text>


</g><g
         id="g3361"
         transform="translate(-632.16778,-502.86074)"><path
           id="path356"
           style="fill:#00cc16;fill-opacity:1;fill-rule:nonzero;stroke:none"
           d="m 11132.1,7025.42 543.332,0 0,190.168 -543.332,0 0,-190.168 z"
           inkscape:connector-curvature="0" /><path
           id="path358"
           style="fill:none;stroke:#000000;stroke-width:9.05556011;stroke-linecap:square;stroke-linejoin:round;stroke-miterlimit:10;stroke-opacity:1;stroke-dasharray:none"
           d="m 11132.1,7025.42 543.332,0 0,190.168 -543.332,0 0,-190.168 z"
           inkscape:connector-curvature="0" /><g
           transform="scale(9.05556,9.05556)"
           id="g360"><text
   id="text362"
   transform="matrix(1,0,0,-1,1313.31,775.813)"><tspan
     id="tspan364"
     sodipodi:role="line"
     y="0"
     x="0 24.360001 45.717304 67.19191 87.53849 102.33345 120.18981 134.53056 155.14122 175.75122"
     style="font-size:30px;font-variant:normal;font-weight:normal;writing-mode:lr-tb;fill:#000000;fill-opacity:1;fill-rule:nonzero;stroke:none;font-family:Arial;-inkscape-font-specification:Arial">Understood</tspan></text>


</g><path
           id="path366"
           style="fill:#cc0000;fill-opacity:1;fill-rule:nonzero;stroke:none"
           d="m 11132.1,6626.69 543.332,0 0,190.168 -543.332,0 0,-190.168 z"
           inkscape:connector-curvature="0" /><path
           id="path368"
           style="fill:none;stroke:#000000;stroke-width:9.05556011;stroke-linecap:square;stroke-linejoin:round;stroke-miterlimit:10;stroke-opacity:1;stroke-dasharray:none"
           d="m 11132.1,6626.69 543.332,0 0,190.168 -543.332,0 0,-190.168 z"
           inkscape:connector-curvature="0" /><g
           transform="scale(9.05556,9.05556)"
           id="g370"><text
   id="text372"
   transform="matrix(1,0,0,-1,1313.31,731.782)"><tspan
     id="tspan374"
     sodipodi:role="line"
     y="0"
     x="0 29.853451 40.136765 57.993126 68.276443 89.633743 103.9745 124.32151 139.11604 160.59065 175.3856 195.73219 210.07338 230.41995"
     style="font-size:30px;font-variant:normal;font-weight:normal;writing-mode:lr-tb;fill:#000000;fill-opacity:1;fill-rule:nonzero;stroke:none;font-family:Arial;-inkscape-font-specification:Arial">Misinterpreted</tspan></text>


</g><path
           id="path376"
           style="fill:#c3cc00;fill-opacity:1;fill-rule:nonzero;stroke:none"
           d="m 11132.1,6227.97 543.332,0 0,190.164 -543.332,0 0,-190.164 z"
           inkscape:connector-curvature="0" /><path
           id="path378"
           style="fill:none;stroke:#000000;stroke-width:9.05556011;stroke-linecap:square;stroke-linejoin:round;stroke-miterlimit:10;stroke-opacity:1;stroke-dasharray:none"
           d="m 11132.1,6227.97 543.332,0 0,190.164 -543.332,0 0,-190.164 z"
           inkscape:connector-curvature="0" /><g
           transform="scale(9.05556,9.05556)"
           id="g380"><text
   id="text382"
   transform="matrix(1,0,0,-1,1313.31,687.751)"><tspan
     id="tspan384"
     sodipodi:role="line"
     y="0"
     x="0 11.162049 32.636658 53.994392 74.604393 89.399353 109.74593"
     style="font-size:30px;font-variant:normal;font-weight:normal;writing-mode:lr-tb;fill:#000000;fill-opacity:1;fill-rule:nonzero;stroke:none;font-family:Arial;-inkscape-font-specification:Arial">Ignored</tspan></text>


</g></g></g></g></svg>