<?xml version="1.0" encoding="UTF-8" standalone="no"?>
<!-- Created with Inkscape (http://www.inkscape.org/) -->

<svg
   xmlns:dc="http://purl.org/dc/elements/1.1/"
   xmlns:cc="http://creativecommons.org/ns#"
   xmlns:rdf="http://www.w3.org/1999/02/22-rdf-syntax-ns#"
   xmlns:svg="http://www.w3.org/2000/svg"
   xmlns="http://www.w3.org/2000/svg"
   xmlns:sodipodi="http://sodipodi.sourceforge.net/DTD/sodipodi-0.dtd"
   xmlns:inkscape="http://www.inkscape.org/namespaces/inkscape"
   id="svg2"
   version="1.1"
   inkscape:version="0.48.2 r9819"
   width="2025"
   height="1085"
   xml:space="preserve"
   sodipodi:docname="instruction_type.svg"
   inkscape:export-filename="/Users/jgrizou/Dropbox/shared/BordeauxBielefeld/sharedBordeauxBielefeld/images/plots/meanings/instruction_type.png"
   inkscape:export-xdpi="90"
   inkscape:export-ydpi="90"><metadata
     id="metadata8"><rdf:RDF><cc:Work
         rdf:about=""><dc:format>image/svg+xml</dc:format><dc:type
           rdf:resource="http://purl.org/dc/dcmitype/StillImage" /><dc:title></dc:title></cc:Work></rdf:RDF></metadata><defs
     id="defs6"><clipPath
       clipPathUnits="userSpaceOnUse"
       id="clipPath22"><path
         d="m 769.812,888.805 13773.488,0 0,6564.375 -13773.488,0 0,-6564.375 z"
         id="path24" /></clipPath></defs><sodipodi:namedview
     pagecolor="#ffffff"
     bordercolor="#666666"
     borderopacity="1"
     objecttolerance="10"
     gridtolerance="10"
     guidetolerance="10"
     inkscape:pageopacity="0"
     inkscape:pageshadow="2"
     inkscape:window-width="1280"
     inkscape:window-height="683"
     id="namedview4"
     showgrid="false"
     inkscape:zoom="0.42857143"
     inkscape:cx="1069.5143"
     inkscape:cy="542.5"
     inkscape:window-x="0"
     inkscape:window-y="0"
     inkscape:window-maximized="1"
     inkscape:current-layer="g324" /><g
     id="g10"
     inkscape:groupmode="layer"
     inkscape:label="ink_ext_XXXXXX"
     transform="matrix(1.25,0,0,-1.25,0,1085)"><g
       id="g12"
       transform="scale(0.110429,0.110429)"><g
         id="g18"><g
           id="g20"
           clip-path="url(#clipPath22)"><path
             d="m 1204.75,888.832 579.875,0 0,6199.88 -579.875,0 0,-6199.88 z"
             style="fill:#00adcc;fill-opacity:1;fill-rule:nonzero;stroke:none"
             id="path26" /><path
             d="m 1204.75,888.832 579.875,0 0,6199.88 -579.875,0 0,-6199.88 z"
             style="fill:none;stroke:#000000;stroke-opacity:1;stroke-width:9.05556;stroke-linecap:square;stroke-linejoin:round;stroke-miterlimit:10;stroke-dasharray:none"
             id="path28" /><path
             d="m 2654.42,888.832 579.875,0 0,6199.88 -579.875,0 0,-6199.88 z"
             style="fill:#00adcc;fill-opacity:1;fill-rule:nonzero;stroke:none"
             id="path30" /><path
             d="m 2654.42,888.832 579.875,0 0,6199.88 -579.875,0 0,-6199.88 z"
             style="fill:none;stroke:#000000;stroke-opacity:1;stroke-width:9.05556;stroke-linecap:square;stroke-linejoin:round;stroke-miterlimit:10;stroke-dasharray:none"
             id="path32" /><path
             d="m 4104.09,888.832 579.875,0 0,4741.08 -579.875,0 0,-4741.08 z"
             style="fill:#00adcc;fill-opacity:1;fill-rule:nonzero;stroke:none"
             id="path34" /><path
             d="m 4104.09,888.832 579.875,0 0,4741.08 -579.875,0 0,-4741.08 z"
             style="fill:none;stroke:#000000;stroke-opacity:1;stroke-width:9.05556;stroke-linecap:square;stroke-linejoin:round;stroke-miterlimit:10;stroke-dasharray:none"
             id="path36" /><path
             d="m 5553.75,888.832 579.871,0 0,2188.19 -579.871,0 0,-2188.19 z"
             style="fill:#00adcc;fill-opacity:1;fill-rule:nonzero;stroke:none"
             id="path38" /><path
             d="m 5553.75,888.832 579.871,0 0,2188.19 -579.871,0 0,-2188.19 z"
             style="fill:none;stroke:#000000;stroke-opacity:1;stroke-width:9.05556;stroke-linecap:square;stroke-linejoin:round;stroke-miterlimit:10;stroke-dasharray:none"
             id="path40" /><path
             d="m 7003.42,888.832 579.863,0 0,3282.29 -579.863,0 0,-3282.29 z"
             style="fill:#00adcc;fill-opacity:1;fill-rule:nonzero;stroke:none"
             id="path42" /><path
             d="m 7003.42,888.832 579.863,0 0,3282.29 -579.863,0 0,-3282.29 z"
             style="fill:none;stroke:#000000;stroke-opacity:1;stroke-width:9.05556;stroke-linecap:square;stroke-linejoin:round;stroke-miterlimit:10;stroke-dasharray:none"
             id="path44" /><path
             d="m 8453.09,888.832 579.863,0 0,2552.89 -579.863,0 0,-2552.89 z"
             style="fill:#00adcc;fill-opacity:1;fill-rule:nonzero;stroke:none"
             id="path46" /><path
             d="m 8453.09,888.832 579.863,0 0,2552.89 -579.863,0 0,-2552.89 z"
             style="fill:none;stroke:#000000;stroke-opacity:1;stroke-width:9.05556;stroke-linecap:square;stroke-linejoin:round;stroke-miterlimit:10;stroke-dasharray:none"
             id="path48" /><path
             d="m 9902.79,888.832 579.828,0 0,1458.79 -579.828,0 0,-1458.79 z"
             style="fill:#00adcc;fill-opacity:1;fill-rule:nonzero;stroke:none"
             id="path50" /><path
             d="m 9902.79,888.832 579.828,0 0,1458.79 -579.828,0 0,-1458.79 z"
             style="fill:none;stroke:#000000;stroke-opacity:1;stroke-width:9.05556;stroke-linecap:square;stroke-linejoin:round;stroke-miterlimit:10;stroke-dasharray:none"
             id="path52" /><path
             d="m 11352.4,888.832 579.918,0 0,729.395 -579.918,0 0,-729.395 z"
             style="fill:#00adcc;fill-opacity:1;fill-rule:nonzero;stroke:none"
             id="path54" /><path
             d="m 11352.4,888.832 579.918,0 0,729.395 -579.918,0 0,-729.395 z"
             style="fill:none;stroke:#000000;stroke-opacity:1;stroke-width:9.05556;stroke-linecap:square;stroke-linejoin:round;stroke-miterlimit:10;stroke-dasharray:none"
             id="path56" /><path
             d="m 12802.1,888.832 579.828,0 0,364.703 -579.828,0 0,-364.703 z"
             style="fill:#00adcc;fill-opacity:1;fill-rule:nonzero;stroke:none"
             id="path58" /><path
             d="m 12802.1,888.832 579.828,0 0,364.703 -579.828,0 0,-364.703 z"
             style="fill:none;stroke:#000000;stroke-opacity:1;stroke-width:9.05556;stroke-linecap:square;stroke-linejoin:round;stroke-miterlimit:10;stroke-dasharray:none"
             id="path60" /><path
             d="m 1784.62,888.832 579.863,0 0,6199.88 -579.863,0 0,-6199.88 z"
             style="fill:#c3cc00;fill-opacity:1;fill-rule:nonzero;stroke:none"
             id="path62" /><path
             d="m 1784.62,888.832 579.863,0 0,6199.88 -579.863,0 0,-6199.88 z"
             style="fill:none;stroke:#000000;stroke-opacity:1;stroke-width:9.05556;stroke-linecap:square;stroke-linejoin:round;stroke-miterlimit:10;stroke-dasharray:none"
             id="path64" /><path
             d="m 3234.29,888.832 579.863,0 0,6199.88 -579.863,0 0,-6199.88 z"
             style="fill:#c3cc00;fill-opacity:1;fill-rule:nonzero;stroke:none"
             id="path66" /><path
             d="m 3234.29,888.832 579.863,0 0,6199.88 -579.863,0 0,-6199.88 z"
             style="fill:none;stroke:#000000;stroke-opacity:1;stroke-width:9.05556;stroke-linecap:square;stroke-linejoin:round;stroke-miterlimit:10;stroke-dasharray:none"
             id="path68" /><path
             d="m 4683.96,888.832 579.863,0 0,5105.78 -579.863,0 0,-5105.78 z"
             style="fill:#c3cc00;fill-opacity:1;fill-rule:nonzero;stroke:none"
             id="path70" /><path
             d="m 4683.96,888.832 579.863,0 0,5105.78 -579.863,0 0,-5105.78 z"
             style="fill:none;stroke:#000000;stroke-opacity:1;stroke-width:9.05556;stroke-linecap:square;stroke-linejoin:round;stroke-miterlimit:10;stroke-dasharray:none"
             id="path72" /><path
             d="m 6133.62,888.832 579.863,0 0,1458.79 -579.863,0 0,-1458.79 z"
             style="fill:#c3cc00;fill-opacity:1;fill-rule:nonzero;stroke:none"
             id="path74" /><path
             d="m 6133.62,888.832 579.863,0 0,1458.79 -579.863,0 0,-1458.79 z"
             style="fill:none;stroke:#000000;stroke-opacity:1;stroke-width:9.05556;stroke-linecap:square;stroke-linejoin:round;stroke-miterlimit:10;stroke-dasharray:none"
             id="path76" /><path
             d="m 7583.29,888.832 579.871,0 0,1458.79 -579.871,0 0,-1458.79 z"
             style="fill:#c3cc00;fill-opacity:1;fill-rule:nonzero;stroke:none"
             id="path78" /><path
             d="m 7583.29,888.832 579.871,0 0,1458.79 -579.871,0 0,-1458.79 z"
             style="fill:none;stroke:#000000;stroke-opacity:1;stroke-width:9.05556;stroke-linecap:square;stroke-linejoin:round;stroke-miterlimit:10;stroke-dasharray:none"
             id="path80" /><path
             d="m 9032.95,888.832 579.883,0 0,1823.49 -579.883,0 0,-1823.49 z"
             style="fill:#c3cc00;fill-opacity:1;fill-rule:nonzero;stroke:none"
             id="path82" /><path
             d="m 9032.95,888.832 579.883,0 0,1823.49 -579.883,0 0,-1823.49 z"
             style="fill:none;stroke:#000000;stroke-opacity:1;stroke-width:9.05556;stroke-linecap:square;stroke-linejoin:round;stroke-miterlimit:10;stroke-dasharray:none"
             id="path84" /><path
             d="m 10482.6,888.832 579.828,0 0,729.395 -579.828,0 0,-729.395 z"
             style="fill:#c3cc00;fill-opacity:1;fill-rule:nonzero;stroke:none"
             id="path86" /><path
             d="m 10482.6,888.832 579.828,0 0,729.395 -579.828,0 0,-729.395 z"
             style="fill:none;stroke:#000000;stroke-opacity:1;stroke-width:9.05556;stroke-linecap:square;stroke-linejoin:round;stroke-miterlimit:10;stroke-dasharray:none"
             id="path88" /><path
             d="m 11932.3,888.832 579.828,0 0,0 -579.828,0 z"
             style="fill:#c3cc00;fill-opacity:1;fill-rule:nonzero;stroke:none"
             id="path90" /><path
             d="m 11932.3,888.832 579.828,0 0,0 -579.828,0 z"
             style="fill:none;stroke:#000000;stroke-opacity:1;stroke-width:9.05556;stroke-linecap:square;stroke-linejoin:round;stroke-miterlimit:10;stroke-dasharray:none"
             id="path92" /><path
             d="m 13381.9,888.832 579.918,0 0,729.395 -579.918,0 0,-729.395 z"
             style="fill:#c3cc00;fill-opacity:1;fill-rule:nonzero;stroke:none"
             id="path94" /><path
             d="m 13381.9,888.832 579.918,0 0,729.395 -579.918,0 0,-729.395 z"
             style="fill:none;stroke:#000000;stroke-opacity:1;stroke-width:9.05556;stroke-linecap:square;stroke-linejoin:round;stroke-miterlimit:10;stroke-dasharray:none"
             id="path96" /></g></g><path
         d="m 1784.62,888.832 0,36.223"
         style="fill:#000000;fill-opacity:1;fill-rule:nonzero;stroke:none"
         id="path98" /><path
         d="m 1784.62,888.832 0,36.223"
         style="fill:none;stroke:#000000;stroke-opacity:1;stroke-width:4.52778;stroke-linecap:butt;stroke-linejoin:round;stroke-miterlimit:10;stroke-dasharray:none"
         id="path100" /><g
         id="g106"
         transform="scale(9.05556,9.05556)"><text
   transform="matrix(1,0,0,-1,142.457,75.1528)"
   id="text108"><tspan
     style="fill:#000000;fill-opacity:1;fill-rule:nonzero;stroke:none;font-family:Arial;font-variant:normal;font-weight:normal;font-size:25;writing-mode:lr;-inkscape-font-specification:Arial"
     x="0 18.32266793 35.49832846 50.37869356 58.94776229 70.89873286 79.46780158 95.76435066"
     y="0"
     sodipodi:role="line"
     id="tspan110">Positive</tspan><tspan
     style="fill:#000000;fill-opacity:1;fill-rule:nonzero;stroke:none;font-family:Arial;font-variant:normal;font-weight:normal;font-size:25;writing-mode:lr;-inkscape-font-specification:Arial"
     x="-17.0234 -8.31974687 7.75808563 24.71331593 41.6689776 59.56458308 77.46018855 94.33001218 109.1495662"
     y="29.0434"
     sodipodi:role="line"
     id="tspan112"> Feedback</tspan></text>


</g><path
         d="m 3234.29,888.832 0,36.223"
         style="fill:#000000;fill-opacity:1;fill-rule:nonzero;stroke:none"
         id="path114" /><path
         d="m 3234.29,888.832 0,36.223"
         style="fill:none;stroke:#000000;stroke-opacity:1;stroke-width:4.52778;stroke-linecap:butt;stroke-linejoin:round;stroke-miterlimit:10;stroke-dasharray:none"
         id="path116" /><g
         id="g122"
         transform="scale(9.05556,9.05556)"><text
   transform="matrix(1,0,0,-1,295.7,75.1528)"
   id="text124"><tspan
     style="fill:#000000;fill-opacity:1;fill-rule:nonzero;stroke:none;font-family:Arial;font-variant:normal;font-weight:normal;font-size:25;writing-mode:lr;-inkscape-font-specification:Arial"
     x="0 20.9224927 37.87815438 55.77375985 72.64401483 84.59455403 93.16405413 109.46017186"
     y="0"
     sodipodi:role="line"
     id="tspan126">Negative</tspan><tspan
     style="fill:#000000;fill-opacity:1;fill-rule:nonzero;stroke:none;font-family:Arial;font-variant:normal;font-weight:normal;font-size:25;writing-mode:lr;-inkscape-font-specification:Arial"
     x="-10.1798 -1.47616035 14.60125465 31.55691633 48.512578 66.40818348 84.30335758 101.17361255 115.99316658"
     y="29.0434"
     sodipodi:role="line"
     id="tspan128"> Feedback</tspan></text>


</g><path
         d="m 4683.96,888.832 0,36.223"
         style="fill:#000000;fill-opacity:1;fill-rule:nonzero;stroke:none"
         id="path130" /><path
         d="m 4683.96,888.832 0,36.223"
         style="fill:none;stroke:#000000;stroke-opacity:1;stroke-width:4.52778;stroke-linecap:butt;stroke-linejoin:round;stroke-miterlimit:10;stroke-dasharray:none"
         id="path132" /><g
         id="g138"
         transform="scale(9.05556,9.05556)"><text
   transform="matrix(1,0,0,-1,493.059,75.1528)"
   id="text140"><tspan
     style="fill:#000000;fill-opacity:1;fill-rule:nonzero;stroke:none;font-family:Arial;font-variant:normal;font-weight:normal;font-size:25;writing-mode:lr;-inkscape-font-specification:Arial"
     x="0 17.07731859 34.87543137"
     y="0"
     sodipodi:role="line"
     id="tspan142">End</tspan></text>


</g><path
         d="m 6133.62,888.832 0,36.223"
         style="fill:#000000;fill-opacity:1;fill-rule:nonzero;stroke:none"
         id="path144" /><path
         d="m 6133.62,888.832 0,36.223"
         style="fill:none;stroke:#000000;stroke-opacity:1;stroke-width:4.52778;stroke-linecap:butt;stroke-linejoin:round;stroke-miterlimit:10;stroke-dasharray:none"
         id="path146" /><g
         id="g152"
         transform="scale(9.05556,9.05556)"><text
   transform="matrix(1,0,0,-1,638.778,75.9345)"
   id="text154"><tspan
     style="fill:#000000;fill-opacity:1;fill-rule:nonzero;stroke:none;font-family:Arial;font-variant:normal;font-weight:normal;font-size:25;writing-mode:lr;-inkscape-font-specification:Arial"
     x="0 19.25053921 36.20620088 51.08659296 68.04182326"
     y="0"
     sodipodi:role="line"
     id="tspan156">Reset</tspan></text>


</g><path
         d="m 7583.29,888.832 0,36.223"
         style="fill:#000000;fill-opacity:1;fill-rule:nonzero;stroke:none"
         id="path158" /><path
         d="m 7583.29,888.832 0,36.223"
         style="fill:none;stroke:#000000;stroke-opacity:1;stroke-width:4.52778;stroke-linecap:butt;stroke-linejoin:round;stroke-miterlimit:10;stroke-dasharray:none"
         id="path160" /><g
         id="g166"
         transform="scale(9.05556,9.05556)"><text
   transform="matrix(1,0,0,-1,773.028,75.1528)"
   id="text168"><tspan
     style="fill:#000000;fill-opacity:1;fill-rule:nonzero;stroke:none;font-family:Arial;font-variant:normal;font-weight:normal;font-size:25;writing-mode:lr;-inkscape-font-specification:Arial"
     x="0 20.5200393 38.31815208 46.8872208 64.78285323 81.6531082 99.45078962 114.27034364"
     y="0"
     sodipodi:role="line"
     id="tspan170">Guidance</tspan></text>


</g><path
         d="m 9032.95,888.832 0,36.223"
         style="fill:#000000;fill-opacity:1;fill-rule:nonzero;stroke:none"
         id="path172" /><path
         d="m 9032.95,888.832 0,36.223"
         style="fill:none;stroke:#000000;stroke-opacity:1;stroke-width:4.52778;stroke-linecap:butt;stroke-linejoin:round;stroke-miterlimit:10;stroke-dasharray:none"
         id="path174" /><g
         id="g180"
         transform="scale(9.05556,9.05556)"><text
   transform="matrix(1,0,0,-1,961.372,75.1528)"
   id="text182"><tspan
     style="fill:#000000;fill-opacity:1;fill-rule:nonzero;stroke:none;font-family:Arial;font-variant:normal;font-weight:normal;font-size:25;writing-mode:lr;-inkscape-font-specification:Arial"
     x="0 18.34719613 35.52219613 44.09169623 61.26669623"
     y="0"
     sodipodi:role="line"
     id="tspan184">Color</tspan></text>


</g><path
         d="m 10482.6,888.832 0,36.223"
         style="fill:#000000;fill-opacity:1;fill-rule:nonzero;stroke:none"
         id="path186" /><path
         d="m 10482.6,888.832 0,36.223"
         style="fill:none;stroke:#000000;stroke-opacity:1;stroke-width:4.52778;stroke-linecap:butt;stroke-linejoin:round;stroke-miterlimit:10;stroke-dasharray:none"
         id="path188" /><g
         id="g194"
         transform="scale(9.05556,9.05556)"><text
   transform="matrix(1,0,0,-1,1130.05,75.1528)"
   id="text196"><tspan
     style="fill:#000000;fill-opacity:1;fill-rule:nonzero;stroke:none;font-family:Arial;font-variant:normal;font-weight:normal;font-size:25;writing-mode:lr;-inkscape-font-specification:Arial"
     x="0 18.00560775 26.57467648 41.12543137"
     y="0"
     sodipodi:role="line"
     id="tspan198">Size</tspan></text>


</g><path
         d="m 11932.3,888.832 0,36.223"
         style="fill:#000000;fill-opacity:1;fill-rule:nonzero;stroke:none"
         id="path200" /><path
         d="m 11932.3,888.832 0,36.223"
         style="fill:none;stroke:#000000;stroke-opacity:1;stroke-width:4.52778;stroke-linecap:butt;stroke-linejoin:round;stroke-miterlimit:10;stroke-dasharray:none"
         id="path202" /><g
         id="g208"
         transform="scale(9.05556,9.05556)"><text
   transform="matrix(1,0,0,-1,1259.64,75.1528)"
   id="text210"><tspan
     style="fill:#000000;fill-opacity:1;fill-rule:nonzero;stroke:none;font-family:Arial;font-variant:normal;font-weight:normal;font-size:25;writing-mode:lr;-inkscape-font-specification:Arial"
     x="0 15.93028423 33.10528423 47.92435295 64.79460793 76.74514713 85.31464723 102.48964723"
     y="0"
     sodipodi:role="line"
     id="tspan212">Location</tspan></text>


</g><path
         d="m 13381.9,888.832 0,36.223"
         style="fill:#000000;fill-opacity:1;fill-rule:nonzero;stroke:none"
         id="path214" /><path
         d="m 13381.9,888.832 0,36.223"
         style="fill:none;stroke:#000000;stroke-opacity:1;stroke-width:4.52778;stroke-linecap:butt;stroke-linejoin:round;stroke-miterlimit:10;stroke-dasharray:none"
         id="path216" /><g
         id="g222"
         transform="scale(9.05556,9.05556)"><text
   transform="matrix(1,0,0,-1,1436.09,75.5907)"
   id="text224"><tspan
     style="fill:#000000;fill-opacity:1;fill-rule:nonzero;stroke:none;font-family:Arial;font-variant:normal;font-weight:normal;font-size:25;writing-mode:lr;-inkscape-font-specification:Arial"
     x="0 20.5200393 32.84892158 50.02392158 67.82208827"
     y="0"
     sodipodi:role="line"
     id="tspan226">Group</tspan></text>


<text
   transform="scale(1,-1)"
   id="text228"
   x="682.82623"
   y="-13.152983"
   style="font-size:32.00011444px;font-style:normal;font-variant:normal;font-weight:normal;font-stretch:normal;text-align:start;line-height:125%;writing-mode:lr-tb;text-anchor:start;font-family:Sans;-inkscape-font-specification:Sans"
   sodipodi:linespacing="125%"><tspan
     style="font-size:32.00011444px;font-style:normal;font-variant:normal;font-weight:normal;font-stretch:normal;text-align:start;line-height:125%;writing-mode:lr-tb;text-anchor:start;fill:#000000;fill-opacity:1;fill-rule:nonzero;stroke:none;font-family:Sans;-inkscape-font-specification:Sans"
     x="682.82623"
     sodipodi:role="line"
     id="tspan230"
     y="-13.152983">Meaning categories</tspan></text>


</g><path
         d="m 769.855,888.832 36.223,0"
         style="fill:#000000;fill-opacity:1;fill-rule:nonzero;stroke:none"
         id="path232" /><path
         d="m 769.855,888.832 36.223,0"
         style="fill:none;stroke:#000000;stroke-opacity:1;stroke-width:4.52778;stroke-linecap:butt;stroke-linejoin:round;stroke-miterlimit:10;stroke-dasharray:none"
         id="path234" /><g
         id="g240"
         transform="scale(9.05556,9.05556)"><text
   transform="matrix(1,0,0,-1,66.0144,89.0514)"
   id="text242"><tspan
     style="fill:#000000;fill-opacity:1;fill-rule:nonzero;stroke:none;font-family:Arial;font-variant:normal;font-weight:normal;font-size:25;writing-mode:lr;-inkscape-font-specification:Arial"
     x="0"
     y="0"
     id="tspan244">0</tspan></text>


</g><path
         d="m 769.855,2712.32 36.223,0"
         style="fill:#000000;fill-opacity:1;fill-rule:nonzero;stroke:none"
         id="path246" /><path
         d="m 769.855,2712.32 36.223,0"
         style="fill:none;stroke:#000000;stroke-opacity:1;stroke-width:4.52778;stroke-linecap:butt;stroke-linejoin:round;stroke-miterlimit:10;stroke-dasharray:none"
         id="path248" /><g
         id="g254"
         transform="scale(9.05556,9.05556)"><text
   transform="matrix(1,0,0,-1,67.296,290.591)"
   id="text256"><tspan
     style="fill:#000000;fill-opacity:1;fill-rule:nonzero;stroke:none;font-family:Arial;font-variant:normal;font-weight:normal;font-size:25;writing-mode:lr;-inkscape-font-specification:Arial"
     x="0"
     y="0"
     id="tspan258">5</tspan></text>


</g><path
         d="m 769.855,4535.82 36.223,0"
         style="fill:#000000;fill-opacity:1;fill-rule:nonzero;stroke:none"
         id="path260" /><path
         d="m 769.855,4535.82 36.223,0"
         style="fill:none;stroke:#000000;stroke-opacity:1;stroke-width:4.52778;stroke-linecap:butt;stroke-linejoin:round;stroke-miterlimit:10;stroke-dasharray:none"
         id="path262" /><g
         id="g268"
         transform="scale(9.05556,9.05556)"><text
   transform="matrix(1,0,0,-1,50.2488,491.786)"
   id="text270"><tspan
     style="fill:#000000;fill-opacity:1;fill-rule:nonzero;stroke:none;font-family:Arial;font-variant:normal;font-weight:normal;font-size:25;writing-mode:lr;-inkscape-font-specification:Arial"
     x="0 17.39522803"
     y="0"
     sodipodi:role="line"
     id="tspan272">10</tspan></text>


</g><path
         d="m 769.855,5994.61 36.223,0"
         style="fill:#000000;fill-opacity:1;fill-rule:nonzero;stroke:none"
         id="path274" /><path
         d="m 769.855,5994.61 36.223,0"
         style="fill:none;stroke:#000000;stroke-opacity:1;stroke-width:4.52778;stroke-linecap:butt;stroke-linejoin:round;stroke-miterlimit:10;stroke-dasharray:none"
         id="path276" /><g
         id="g282"
         transform="scale(9.05556,9.05556)"><text
   transform="matrix(1,0,0,-1,50.2023,652.872)"
   id="text284"><tspan
     style="fill:#000000;fill-opacity:1;fill-rule:nonzero;stroke:none;font-family:Arial;font-variant:normal;font-weight:normal;font-size:25;writing-mode:lr;-inkscape-font-specification:Arial"
     x="0 17.39479665"
     y="0"
     sodipodi:role="line"
     id="tspan286">14</tspan></text>


</g><path
         d="m 769.855,7088.71 36.223,0"
         style="fill:#000000;fill-opacity:1;fill-rule:nonzero;stroke:none"
         id="path288" /><path
         d="m 769.855,7088.71 36.223,0"
         style="fill:none;stroke:#000000;stroke-opacity:1;stroke-width:4.52778;stroke-linecap:butt;stroke-linejoin:round;stroke-miterlimit:10;stroke-dasharray:none"
         id="path290" /><g
         id="g296"
         transform="scale(9.05556,9.05556)"><text
   transform="matrix(1,0,0,-1,51.046,773.692)"
   id="text298"><tspan
     style="fill:#000000;fill-opacity:1;fill-rule:nonzero;stroke:none;font-family:Arial;font-variant:normal;font-weight:normal;font-size:25;writing-mode:lr;-inkscape-font-specification:Arial"
     x="0 17.39479665"
     y="0"
     sodipodi:role="line"
     id="tspan300">17</tspan></text>


<text
   transform="matrix(0,1,1,0,38.9678,264.63)"
   id="text302"
   style="-inkscape-font-specification:Arial;font-family:Arial;font-weight:normal;font-style:normal;font-stretch:normal;font-variant:normal;font-size:32.00011407px;text-anchor:start;text-align:start;writing-mode:lr;line-height:125%"
   sodipodi:linespacing="125%"><tspan
     style="font-size:32.00011407px;font-variant:normal;font-weight:normal;writing-mode:lr;fill:#000000;fill-opacity:1;fill-rule:nonzero;stroke:none;font-family:Arial;-inkscape-font-specification:Arial;font-style:normal;font-stretch:normal;text-anchor:start;text-align:start;line-height:125%"
     x="0"
     y="0"
     sodipodi:role="line"
     id="tspan304">Number of participants</tspan></text>


</g><path
         d="m 769.855,888.832 13538.257,0"
         style="fill:none;stroke:#000000;stroke-width:8.97843456;stroke-linecap:square;stroke-linejoin:round;stroke-miterlimit:10;stroke-opacity:1;stroke-dasharray:none"
         id="path310"
         inkscape:connector-curvature="0" /><path
         d="m 769.855,888.832 0,6197.6989"
         style="fill:none;stroke:#000000;stroke-width:8.80088329;stroke-linecap:square;stroke-linejoin:round;stroke-miterlimit:10;stroke-opacity:1;stroke-dasharray:none"
         id="path312"
         inkscape:connector-curvature="0" /><g
         id="g314"
         transform="scale(9.05556,9.05556)"><text
   transform="scale(1,-1)"
   id="text316"
   sodipodi:linespacing="125%"
   style="font-size:32.00011444px;font-style:normal;font-variant:normal;font-weight:normal;font-stretch:normal;text-align:start;line-height:125%;writing-mode:lr-tb;text-anchor:start;font-family:Sans;-inkscape-font-specification:Sans"
   x="288.80511"
   y="-820.60834"><tspan
     style="font-size:32.00011444px;font-style:normal;font-variant:normal;font-weight:normal;font-stretch:normal;text-align:start;line-height:125%;writing-mode:lr-tb;text-anchor:start;fill:#000000;fill-opacity:1;fill-rule:nonzero;stroke:none;font-family:Sans;-inkscape-font-specification:Sans"
     x="288.80511"
     y="-820.60834"
     sodipodi:role="line"
     id="tspan318">Number of participants using/interpreting different meaning categories</tspan></text>


</g><g
         id="g3315"
         transform="translate(-1727.0846,-741.63043)"><path
           id="path320"
           style="fill:#00adcc;fill-opacity:1;fill-rule:nonzero;stroke:none"
           d="m 12147.2,7002.47 543.332,0 0,190.164 -543.332,0 0,-190.164 z"
           inkscape:connector-curvature="0" /><path
           id="path322"
           style="fill:none;stroke:#000000;stroke-width:9.05556011;stroke-linecap:square;stroke-linejoin:round;stroke-miterlimit:10;stroke-opacity:1;stroke-dasharray:none"
           d="m 12147.2,7002.47 543.332,0 0,190.164 -543.332,0 0,-190.164 z"
           inkscape:connector-curvature="0" /><g
           transform="scale(9.05556,9.05556)"
           id="g324"><text
   id="text326"
   transform="matrix(1,0,0,-1,1425.41,773.279)"><tspan
     id="tspan328"
     sodipodi:role="line"
     y="0"
     x="0 23.217844 38.012802 55.795795 77.153526 87.436409 101.7776 122.12418 139.90717"
     style="font-size:30px;font-variant:normal;font-weight:normal;writing-mode:lr-tb;fill:#000000;fill-opacity:1;fill-rule:nonzero;stroke:none;font-family:Arial;-inkscape-font-specification:Arial">Architect</tspan></text>


</g><path
           id="path330"
           style="fill:#c3cc00;fill-opacity:1;fill-rule:nonzero;stroke:none"
           d="m 12147.2,6603.74 543.332,0 0,190.164 -543.332,0 0,-190.164 z"
           inkscape:connector-curvature="0" /><path
           id="path332"
           style="fill:none;stroke:#000000;stroke-width:9.05556011;stroke-linecap:square;stroke-linejoin:round;stroke-miterlimit:10;stroke-opacity:1;stroke-dasharray:none"
           d="m 12147.2,6603.74 543.332,0 0,190.164 -543.332,0 0,-190.164 z"
           inkscape:connector-curvature="0" /><g
           transform="scale(9.05556,9.05556)"
           id="g334"><text
   id="text336"
   transform="matrix(1,0,0,-1,1425.41,729.248)"><tspan
     id="tspan338"
     sodipodi:role="line"
     y="0"
     x="0 22.866255 44.22356 54.506874 64.790184 86.264793 106.61137"
     style="font-size:30px;font-variant:normal;font-weight:normal;writing-mode:lr-tb;fill:#000000;fill-opacity:1;fill-rule:nonzero;stroke:none;font-family:Arial;-inkscape-font-specification:Arial">Builder</tspan></text>


</g></g></g></g></svg>